<svg width="174" height="166" viewBox="0 0 174 166" fill="none" xmlns="http://www.w3.org/2000/svg">
<ellipse cx="92.7869" cy="84.4235" rx="67.6855" ry="69.0361" transform="rotate(9.99998 92.7869 84.4235)" fill="url(#paint0_linear_1263_1382)"/>
<ellipse cx="85.6084" cy="83.1577" rx="68.7268" ry="70.0982" transform="rotate(9.99998 85.6084 83.1577)" fill="url(#paint1_linear_1263_1382)"/>
<path fill-rule="evenodd" clip-rule="evenodd" d="M75.4241 143.914C107.99 149.656 139.138 127.384 144.995 94.1684C150.852 60.9525 129.2 29.3707 96.6337 23.6285C64.0677 17.8862 32.9198 40.158 27.0629 73.3738C21.2061 106.59 42.8581 138.171 75.4241 143.914ZM76.2025 139.5C106.378 144.82 135.24 124.183 140.667 93.4053C146.094 62.6273 126.031 33.3634 95.8554 28.0426C65.6796 22.7218 36.8177 43.3589 31.3907 74.1369C25.9637 104.915 46.0267 134.179 76.2025 139.5Z" fill="url(#paint2_linear_1263_1382)"/>
<ellipse cx="86.029" cy="83.7711" rx="55.7104" ry="56.8221" transform="rotate(9.99998 86.029 83.7711)" fill="url(#paint3_linear_1263_1382)"/>
<path d="M123.741 53.5468L95.0317 61.2393C84.262 64.125 77.8707 75.195 80.7565 85.9648L82.7885 93.5483L107.826 86.8395C120.623 83.4104 128.218 70.2563 124.789 57.4589L123.741 53.5468Z" fill="#FFDC19"/>
<mask id="mask0_1263_1382" style="mask-type:luminance" maskUnits="userSpaceOnUse" x="80" y="53" width="46" height="41">
<path d="M123.741 53.5468L95.0317 61.2393C84.262 64.125 77.8707 75.195 80.7565 85.9648L82.7885 93.5483L107.826 86.8395C120.623 83.4104 128.218 70.2563 124.789 57.4589L123.741 53.5468Z" fill="white"/>
</mask>
<g mask="url(#mask0_1263_1382)">
<path fill-rule="evenodd" clip-rule="evenodd" d="M114.767 69.6654C114.913 70.2104 115.472 70.5346 116.015 70.3891C116.558 70.2436 116.88 69.6833 116.734 69.1383C116.588 68.5934 116.029 68.2692 115.486 68.4147C114.943 68.5602 114.621 69.1205 114.767 69.6654Z" fill="#FFB500"/>
<path fill-rule="evenodd" clip-rule="evenodd" d="M112.118 73.5496C112.264 74.0945 112.823 74.4187 113.366 74.2733C113.909 74.1278 114.231 73.5674 114.085 73.0225C113.939 72.4775 113.38 72.1533 112.837 72.2988C112.294 72.4443 111.972 73.0047 112.118 73.5496Z" fill="#FFB500"/>
<path fill-rule="evenodd" clip-rule="evenodd" d="M116.317 73.4826C116.463 74.0275 117.022 74.3517 117.565 74.2062C118.108 74.0608 118.43 73.5004 118.284 72.9555C118.138 72.4105 117.579 72.0863 117.036 72.2318C116.493 72.3773 116.171 72.9376 116.317 73.4826Z" fill="#FFB500"/>
<path fill-rule="evenodd" clip-rule="evenodd" d="M133.885 47.2598C131.756 39.3158 123.719 34.5673 115.934 36.6533C108.148 38.7395 103.562 46.8703 105.691 54.8143C107.819 62.7583 115.857 67.5067 123.642 65.4206C131.427 63.3345 136.013 55.2039 133.885 47.2598Z" fill="#E88315"/>
</g>
<mask id="mask1_1263_1382" style="mask-type:luminance" maskUnits="userSpaceOnUse" x="42" y="55" width="74" height="61">
<ellipse cx="36.9184" cy="29.0108" rx="36.9184" ry="29.0108" transform="matrix(-0.965926 0.258819 0.258819 0.965926 107.075 47.9215)" fill="white"/>
</mask>
<g mask="url(#mask1_1263_1382)">
<path fill-rule="evenodd" clip-rule="evenodd" d="M93.6455 61.8076L71.5224 67.6762C66.8339 68.92 63.525 73.1037 63.3949 77.9527L62.2073 122.221C62.0306 128.806 67.5395 134.124 74.1138 133.716L90.6225 132.691C97.0886 132.29 101.871 126.509 101.054 120.083L93.6455 61.8076Z" fill="#FFDC19"/>
<path opacity="0.1" d="M97.5323 114.774C95.835 109.63 90.6185 106.511 85.2838 107.452L81.6513 108.092C76.6463 108.975 72.9147 113.198 72.6549 118.273L71.8031 134.913C71.466 141.5 77.009 146.876 83.5831 146.338L93.5008 145.526C100.535 144.95 105.177 137.944 102.966 131.242L97.5323 114.774Z" fill="white"/>
</g>
<path fill-rule="evenodd" clip-rule="evenodd" d="M87.4493 85.7534C87.4493 85.7534 75.3382 90.5272 71.3677 81.0207C71.3677 81.0207 71.9621 90.5483 78.7173 92.2861C83.9713 93.6378 87.4493 85.7534 87.4493 85.7534Z" fill="#E88315"/>
<path fill-rule="evenodd" clip-rule="evenodd" d="M87.8797 68.9677C87.8797 68.9677 90.0865 75.3511 85.9182 76.468C81.7509 77.5846 80.0072 71.0771 80.0072 71.0771C80.0072 71.0771 82.6416 75.353 85.4199 74.6086C88.1988 73.864 87.8797 68.9677 87.8797 68.9677Z" fill="#E88315"/>
<path fill-rule="evenodd" clip-rule="evenodd" d="M77.6916 71.6976C77.6916 71.6976 79.8985 78.081 75.7301 79.1979C71.5628 80.3145 69.8191 73.807 69.8191 73.807C69.8191 73.807 72.4535 78.0829 75.2319 77.3384C78.0108 76.5938 77.6916 71.6976 77.6916 71.6976Z" fill="#E88315"/>
<path fill-rule="evenodd" clip-rule="evenodd" d="M52.1585 107.699C54.9884 108.457 57.8937 106.791 58.6474 103.978L65.6983 77.6641C60.0381 76.1474 54.2274 79.4788 52.7201 85.1043L48.3986 101.232C47.6449 104.045 49.3282 106.94 52.1585 107.699Z" fill="#EE8C22"/>
<mask id="mask2_1263_1382" style="mask-type:luminance" maskUnits="userSpaceOnUse" x="48" y="77" width="18" height="31">
<path fill-rule="evenodd" clip-rule="evenodd" d="M52.1585 107.699C54.9884 108.457 57.8937 106.791 58.6474 103.978L65.6983 77.6641C60.0381 76.1474 54.2274 79.4788 52.7201 85.1043L48.3986 101.232C47.6449 104.045 49.3282 106.94 52.1585 107.699Z" fill="white"/>
</mask>
<g mask="url(#mask2_1263_1382)">
<path fill-rule="evenodd" clip-rule="evenodd" d="M59.2045 103.895C58.4508 106.708 55.5447 108.373 52.7143 107.614C49.8834 106.856 48.1995 103.961 48.9532 101.148L53.2739 85.0231C54.7812 79.3979 60.5924 76.0679 66.2542 77.585L59.2045 103.895Z" fill="#EE8C22"/>
<path fill-rule="evenodd" clip-rule="evenodd" d="M43.8134 50.7626L63.6899 56.0885L52.4878 97.8953C51.4782 101.663 53.7346 105.542 57.5265 106.558L91.158 115.569L85.8666 135.317L29.7156 120.271L30.84 116.075L26.6162 114.943L43.8134 50.7626Z" fill="#E88315"/>
</g>
<ellipse cx="6.31849" cy="50.9926" rx="6.31849" ry="6.50061" fill="#FFE560"/>
<ellipse cx="14.322" cy="21.0897" rx="2.5274" ry="2.60024" fill="#FFE560"/>
<ellipse cx="47.1781" cy="2.02134" rx="1.68493" ry="1.7335" fill="#FFE560"/>
<path fill-rule="evenodd" clip-rule="evenodd" d="M36.226 15.8893C35.2955 15.8893 34.5411 16.6436 34.5411 17.5742V20.2716H31.8437C30.9131 20.2716 30.1588 21.0259 30.1588 21.9565C30.1588 22.8871 30.9131 23.6414 31.8437 23.6414H34.5411V26.3388C34.5411 27.2694 35.2955 28.0238 36.226 28.0238C37.1566 28.0238 37.9109 27.2694 37.9109 26.3388V23.6414H40.6083C41.5389 23.6414 42.2932 22.8871 42.2932 21.9565C42.2932 21.0259 41.5389 20.2716 40.6083 20.2716H37.9109V17.5742C37.9109 16.6437 37.1566 15.8893 36.226 15.8893Z" fill="#FFE560"/>
<ellipse cx="167.682" cy="120.007" rx="6.31849" ry="6.50061" transform="rotate(180 167.682 120.007)" fill="#FFE560"/>
<ellipse cx="159.678" cy="149.91" rx="2.5274" ry="2.60024" transform="rotate(180 159.678 149.91)" fill="#FFE560"/>
<path fill-rule="evenodd" clip-rule="evenodd" d="M137.774 155.111C138.705 155.111 139.459 154.356 139.459 153.426V150.728H142.156C143.087 150.728 143.841 149.974 143.841 149.043C143.841 148.113 143.087 147.359 142.156 147.359H139.459V144.661C139.459 143.731 138.705 142.976 137.774 142.976C136.843 142.976 136.089 143.731 136.089 144.661V147.359H133.392C132.461 147.359 131.707 148.113 131.707 149.043C131.707 149.974 132.461 150.728 133.392 150.728H136.089V153.426C136.089 154.356 136.843 155.111 137.774 155.111Z" fill="#FFE560"/>
<defs>
<linearGradient id="paint0_linear_1263_1382" x1="-18.5723" y1="63.9772" x2="79.2405" y2="200.23" gradientUnits="userSpaceOnUse">
<stop stop-color="#FFB25C"/>
<stop offset="1" stop-color="#E27500"/>
</linearGradient>
<linearGradient id="paint1_linear_1263_1382" x1="-37.9141" y1="103.249" x2="85.3615" y2="212.604" gradientUnits="userSpaceOnUse">
<stop stop-color="#FFED96"/>
<stop offset="1" stop-color="#FFD800"/>
</linearGradient>
<linearGradient id="paint2_linear_1263_1382" x1="-21.7025" y1="53.0953" x2="55.4311" y2="188.767" gradientUnits="userSpaceOnUse">
<stop stop-color="#E27500"/>
<stop offset="1" stop-color="#FFBA3B"/>
</linearGradient>
<linearGradient id="paint3_linear_1263_1382" x1="-5.62819" y1="66.9422" x2="74.8793" y2="179.089" gradientUnits="userSpaceOnUse">
<stop stop-color="#FFA236"/>
<stop offset="1" stop-color="#FED100"/>
</linearGradient>
</defs>
</svg>
